HIERARCHY
ROOT Hips
{
 OFFSET 0.000000 0.000000 0.000000
 CHANNELS 6 Xposition Yposition Zposition Yrotation Xrotation Zrotation
 JOINT Chest
 {
  OFFSET 0.000000 9.585900 0.002600
  CHANNELS 3 Yrotation Xrotation Zrotation
  JOINT Chest2
  {
   OFFSET 0.000000 9.601200 -0.005300
   CHANNELS 3 Yrotation Xrotation Zrotation
   JOINT Chest3
   {
    OFFSET 0.000000 9.561800 0.000000
    CHANNELS 3 Yrotation Xrotation Zrotation
    JOINT Chest4
    {
     OFFSET 0.000000 9.552100 0.000000
     CHANNELS 3 Yrotation Xrotation Zrotation
     JOINT Neck
     {
      OFFSET 0.000000 14.453000 0.000000
      CHANNELS 3 Yrotation Xrotation Zrotation
      JOINT Head
      {
       OFFSET 0.000000 8.936500 -0.011300
       CHANNELS 3 Yrotation Xrotation Zrotation
       End Site
       {
        OFFSET 0.000000 17.073600 -0.006000
       }
      }
     }
     JOINT RightCollar
     {
      OFFSET -2.921100 9.558500 0.000000
      CHANNELS 3 Yrotation Xrotation Zrotation
      JOINT RightShoulder
      {
       OFFSET -13.519700 0.000000 0.000000
       CHANNELS 3 Yrotation Xrotation Zrotation
       JOINT RightElbow
       {
        OFFSET 0.000000 -29.696600 0.000000
        CHANNELS 3 Yrotation Xrotation Zrotation
        JOINT RightWrist
        {
         OFFSET 0.000000 -24.004700 0.000000
         CHANNELS 3 Yrotation Xrotation Zrotation
         End Site
         {
          OFFSET 0.000000 -17.728500 0.000000
         }
        }
       }
      }
     }
     JOINT LeftCollar
     {
      OFFSET 2.921100 9.558500 0.000000
      CHANNELS 3 Yrotation Xrotation Zrotation
      JOINT LeftShoulder
      {
       OFFSET 13.519700 0.000000 0.000000
       CHANNELS 3 Yrotation Xrotation Zrotation
       JOINT LeftElbow
       {
        OFFSET 0.000000 -29.696600 0.000000
        CHANNELS 3 Yrotation Xrotation Zrotation
        JOINT LeftWrist
        {
         OFFSET 0.000000 -24.004700 0.000000
         CHANNELS 3 Yrotation Xrotation Zrotation
         End Site
         {
          OFFSET 0.000000 -17.728500 0.000000
         }
        }
       }
      }
     }
    }
   }
  }
 }
 JOINT RightHip
 {
  OFFSET -7.771700 -0.012900 -0.001300
  CHANNELS 3 Yrotation Xrotation Zrotation
  JOINT RightKnee
  {
   OFFSET 0.000000 -40.869800 0.001200
   CHANNELS 3 Yrotation Xrotation Zrotation
   JOINT RightAnkle
   {
    OFFSET 0.000000 -39.717900 0.002100
    CHANNELS 3 Yrotation Xrotation Zrotation
    JOINT RightToe
    {
     OFFSET 0.000000 -4.965400 11.033500
     CHANNELS 3 Yrotation Xrotation Zrotation
     End Site
     {
      OFFSET 0.000000 -1.423100 5.872300
     }
    }
   }
  }
 }
 JOINT LeftHip
 {
  OFFSET 7.771700 -0.012900 -0.001300
  CHANNELS 3 Yrotation Xrotation Zrotation
  JOINT LeftKnee
  {
   OFFSET 0.000000 -40.869800 0.001200
   CHANNELS 3 Yrotation Xrotation Zrotation
   JOINT LeftAnkle
   {
    OFFSET 0.000000 -39.717900 0.002100
    CHANNELS 3 Yrotation Xrotation Zrotation
    JOINT LeftToe
    {
     OFFSET 0.000000 -4.965400 11.033500
     CHANNELS 3 Yrotation Xrotation Zrotation
     End Site
     {
      OFFSET 0.000000 -1.423100 5.872300
     }
    }
   }
  }
 }
}
MOTION
Frames: 5
Frame Time: 0.008333
-216.175936 57.421509 134.458761 -178.343365 -32.382709 -0.903723 -2.138927 22.929854 2.375657 -0.371035 3.319749 0.411746 -0.605731 5.340650 0.637903 -1.728223 19.272021 2.281501 -0.294112 12.839083 -6.375344 2.177521 -11.649007 -12.101735 5.995540 -0.289183 -4.541800 23.476478 -33.797928 -17.040501 61.110755 -41.582402 -20.246768 24.373603 17.718417 -29.699114 -7.830277 -5.179475 -3.563902 -6.963052 -30.078023 -13.047165 -67.357782 -20.212851 36.259985 -29.422767 5.373188 23.082992 3.909424 -43.388443 -2.000102 -16.217894 67.956661 -25.891192 3.462558 24.058380 4.387493 -0.688472 -15.609411 9.750094 -9.664913 -41.447775 -4.289230 33.310738 67.351675 38.287635 -12.942996 5.596760 -7.880427 -0.326149 0.157542 -0.179205
-216.186816 57.417853 134.453487 -178.321860 -32.459863 -0.859767 -2.132434 22.976796 2.374076 -0.359819 3.335586 0.426663 -0.581475 5.384861 0.668410 -1.772767 19.290248 2.253603 -0.316866 12.802428 -6.439577 2.160182 -11.726899 -12.213213 5.979830 -0.287016 -4.499195 23.604284 -33.855571 -17.099735 61.076496 -41.579682 -20.435373 24.289668 17.674924 -29.639828 -7.881767 -5.127289 -3.545821 -6.948549 -30.050309 -12.897339 -67.265757 -20.665720 36.413497 -29.252015 5.342137 23.068137 3.962186 -43.305856 -2.057909 -16.225947 67.973020 -25.935862 3.481042 24.044491 4.440304 -0.716425 -15.688603 9.756301 -9.653563 -41.389419 -4.411224 33.343373 67.347756 38.342601 -12.913288 5.603204 -7.903432 -0.324973 0.158164 -0.176732
-216.201807 57.412883 134.450847 -178.304896 -32.540600 -0.793640 -2.127925 23.020559 2.352422 -0.360094 3.351661 0.429290 -0.569902 5.413644 0.683574 -1.820755 19.299908 2.224502 -0.271046 12.803240 -6.507977 2.098819 -11.804454 -12.281564 6.044453 -0.232682 -4.371892 23.730906 -33.910608 -17.257129 61.031115 -41.589416 -20.605958 24.204254 17.639625 -29.574837 -7.905960 -5.057425 -3.511058 -6.948229 -30.034328 -12.751308 -67.155699 -21.070836 36.545271 -29.064103 5.309545 23.115005 4.073813 -43.222040 -2.171045 -16.164826 68.006031 -25.913098 3.521259 24.039371 4.551267 -0.778506 -15.776878 9.746505 -9.638159 -41.334924 -4.544951 33.383273 67.347734 38.388078 -12.897820 5.611970 -7.924163 -0.312532 0.154692 -0.175718
-216.213921 57.406337 134.451406 -178.290411 -32.620729 -0.747978 -2.112089 23.060330 2.355150 -0.360246 3.367428 0.432086 -0.597241 5.436596 0.663319 -1.759561 19.349449 2.271293 -0.329734 12.755349 -6.565794 2.085853 -11.866793 -12.377248 6.025408 -0.241219 -4.308566 23.840663 -33.956037 -17.365478 60.983164 -41.621527 -20.755967 24.112993 17.604710 -29.526472 -7.980291 -5.037077 -3.489904 -6.941385 -30.027837 -12.629691 -67.037999 -21.425508 36.652843 -28.868306 5.259362 23.215707 4.193319 -43.144061 -2.274580 -16.151710 68.032609 -25.901047 3.554074 24.048120 4.629259 -0.826815 -15.855711 9.746589 -9.618516 -41.273262 -4.641117 33.361208 67.355085 38.375982 -12.896910 5.607773 -7.963168 -0.288879 0.163858 -0.151650
-216.225366 57.398621 134.454909 -178.278657 -32.702774 -0.707772 -2.092940 23.098730 2.365375 -0.360552 3.382892 0.435282 -0.624759 5.462975 0.641426 -1.698260 19.393538 2.323209 -0.363367 12.714428 -6.626661 2.043017 -11.927162 -12.451343 5.989590 -0.263356 -4.271003 23.913715 -33.982343 -17.450427 60.948419 -41.699164 -20.893641 24.021550 17.567631 -29.503081 -8.056772 -5.056663 -3.499278 -6.923411 -29.997560 -12.510969 -66.911891 -21.735059 36.732283 -28.665510 5.188966 23.362841 4.323126 -43.067002 -2.379028 -16.165761 68.051913 -25.898015 3.602189 24.071794 4.680184 -0.886498 -15.941624 9.771166 -9.603657 -41.210637 -4.725597 33.347244 67.360706 38.365092 -12.899523 5.603502 -7.987464 -0.262979 0.174605 -0.140435
